# xmcd
# 
# Track frame offsets:
#     150
#     19185
#     43312
#     60782
#     84437
#     107290
#     118667
#     141382
#     165705
#     182097
#     200827
#     229145
#     250352
#     270662
#     284152
#     310047
# 
# Disc length: 4480
# 
# Revision: 1
# Processed by: cddbd v1.5.2PL0 Copyright (c) Steve Scherf et al.
# Submitted via: fre:ac v1.0.31
# 
DISCID=e7117e10
DTITLE=Jazziz - Jazziz September 2003
DYEAR=2003
DGENRE=Jazz
TTITLE0=Jaco Pastorius Big Band w Victor Wooten - Teen Town
TTITLE1=Dianne Reeves - I Concentrate On You
TTITLE2=Steve Oliver - High Noon
TTITLE3=Pat Kelley - Minor Sixth Sense
TTITLE4=Jackie Allen - Come Fly With Me
TTITLE5=Gianluigi Trovesi Octet - Siparietto 1
TTITLE6=Hiroshima - Eternal Phoenix
TTITLE7=YaYa Fournier - New York Nights
TTITLE8=Ray Brown Trio - Lined With A Groove
TTITLE9=Pamela Williams - Sunny Day
TTITLE10=Lori Carsillo - Get Out Of Town
TTITLE11=Babatunde Lea - Ejercito Moreno
TTITLE12=Urban Knights - Church
TTITLE13=Diane Schuur - Meet Me, Midnight
TTITLE14=Nicholas Payton - Fela 2
TTITLE15=Kurt Elling - In The Winelight
EXTD=YEAR: 2003
EXTT0=
EXTT1=
EXTT2=
EXTT3=
EXTT4=
EXTT5=
EXTT6=
EXTT7=
EXTT8=
EXTT9=
EXTT10=
EXTT11=
EXTT12=
EXTT13=
EXTT14=
EXTT15=
PLAYORDER=
